<svg xmlns="http://www.w3.org/2000/svg" xmlns:xlink="http://www.w3.org/1999/xlink" id="Capa_1" x="0px" y="0px" viewBox="0 0 300 168.26" style="enable-background:new 0 0 300 168.26;" xml:space="preserve"><style type="text/css">	.st0{fill:#0F0F0F;}	.st1{opacity:0.5;fill:#FFFFFF;}	.st2{fill:none;stroke:#F5B20E;stroke-miterlimit:10;}	.st3{fill:#F5B20E;}	.st4{fill:#F18017;}	.st5{fill:#E06938;}	.st6{fill:#AB3A24;}	.st7{fill:#FFFFFF;}	.st8{clip-path:url(#SVGID_00000119098364502994991890000001780020927671543427_);}	.st9{clip-path:url(#SVGID_00000077315681259160847170000018385383915804603573_);}	.st10{clip-path:url(#SVGID_00000154421097220693214440000005165096764977828789_);}	.st11{clip-path:url(#SVGID_00000106863043518484645140000009293475050325091970_);}	.st12{clip-path:url(#SVGID_00000137118739926029143280000008730617411234942857_);}	.st13{clip-path:url(#SVGID_00000181771411990707618010000000434324246496440714_);}	.st14{clip-path:url(#SVGID_00000068644915928364467940000008593148160362220438_);}	.st15{clip-path:url(#SVGID_00000052785519291548592050000005042258816814899613_);}	.st16{fill:#777777;}	.st17{opacity:0.1;clip-path:url(#SVGID_00000061448380823598323790000006040832983338956416_);}	.st18{clip-path:url(#SVGID_00000045599665544489292070000016532143281382009992_);}	.st19{opacity:0.35;}	.st20{clip-path:url(#SVGID_00000062878851092675539350000015494233115662547078_);}	.st21{opacity:0.3;}	.st22{fill:none;stroke:#F18017;stroke-miterlimit:10;}	.st23{clip-path:url(#SVGID_00000102533433210617920350000011968854438683121325_);}	.st24{clip-path:url(#SVGID_00000147206875144781821470000003758454823428399032_);}	.st25{clip-path:url(#SVGID_00000090975685014067484680000012272205138215850169_);}	.st26{clip-path:url(#SVGID_00000161620067214679919330000001066235337072125625_);}	.st27{clip-path:url(#SVGID_00000101801953592790824380000001954839635336630712_);}	.st28{clip-path:url(#SVGID_00000027605309599268170730000002882392536529653928_);}	.st29{clip-path:url(#SVGID_00000111896787401593253390000011523773996056784563_);}	.st30{clip-path:url(#SVGID_00000130627306358271385510000011330059495213812103_);}	.st31{clip-path:url(#SVGID_00000013903880109304169470000005014470731728283571_);}	.st32{clip-path:url(#SVGID_00000036931766261060654370000017454009755267765950_);}	.st33{clip-path:url(#SVGID_00000141418502377766538830000017077782861965340342_);}	.st34{clip-path:url(#SVGID_00000081607601206064879570000016443299244523668638_);}</style><g>	<g>		<g>			<path class="st7" d="M125.47,61.26c0,5.52-4.46,9.98-9.98,9.98c-5.52,0-9.98-4.46-9.98-9.98c0-5.52,4.46-9.98,9.98-9.98h9.98    V61.26z M130.46,61.26c0-5.52,4.46-9.98,9.98-9.98s9.98,4.46,9.98,9.98v24.95c0,5.52-4.46,9.98-9.98,9.98s-9.98-4.46-9.98-9.98    V61.26z"></path>		</g>	</g>	<g>		<g>			<path class="st7" d="M140.44,21.18c-5.52,0-9.98-4.46-9.98-9.98s4.46-9.98,9.98-9.98s9.98,4.46,9.98,9.98v9.98H140.44z     M140.44,26.24c5.52,0,9.98,4.46,9.98,9.98c0,5.52-4.46,9.98-9.98,9.98h-25.03c-5.52,0-9.98-4.46-9.98-9.98    c0-5.52,4.46-9.98,9.98-9.98H140.44z"></path>		</g>	</g>	<g>		<g>			<path class="st7" d="M180.45,36.23c0-5.52,4.46-9.98,9.98-9.98c5.52,0,9.98,4.46,9.98,9.98c0,5.52-4.46,9.98-9.98,9.98h-9.98    V36.23z M175.45,36.23c0,5.52-4.46,9.98-9.98,9.98s-9.98-4.46-9.98-9.98V11.2c0-5.52,4.46-9.98,9.98-9.98s9.98,4.46,9.98,9.98    V36.23z"></path>		</g>	</g>	<g>		<g>			<path class="st7" d="M165.47,76.23c5.52,0,9.98,4.46,9.98,9.98c0,5.52-4.46,9.98-9.98,9.98s-9.98-4.46-9.98-9.98v-9.98H165.47z     M165.47,71.24c-5.52,0-9.98-4.46-9.98-9.98c0-5.52,4.46-9.98,9.98-9.98h25.03c5.52,0,9.98,4.46,9.98,9.98    c0,5.52-4.46,9.98-9.98,9.98H165.47z"></path>		</g>	</g>	<g>		<g transform="translate(189.767229, 784.857341)">			<g>				<path class="st7" d="M-151.42-640.64l-3.24-32.16c-0.07-0.53-0.33-0.81-0.86-0.81h-0.09c-0.55,0-0.66,0.31-0.95,0.77     l-13.75,23.33l-13.75-23.33c-0.29-0.46-0.4-0.77-0.95-0.77h-0.11c-0.51,0-0.79,0.29-0.84,0.81l-3.24,32.16     c-0.09,0.7,0.33,1.01,0.97,1.01h4.27c0.62,0,0.92-0.26,1.01-0.95l1.61-16.32l9.91,16.85c0.4,0.62,0.55,0.88,1.1,0.88h0.02     c0.53,0,0.68-0.26,1.08-0.88l9.94-16.88l1.59,16.35c0.07,0.68,0.4,0.95,1.01,0.95h4.27     C-151.75-639.62-151.35-639.93-151.42-640.64z"></path>			</g>		</g>	</g>	<g>		<g transform="translate(335.299421, 784.857341)">			<g>				<path class="st7" d="M-262.48-640.73l-14.3-31.94c-0.24-0.53-0.68-0.88-1.21-0.88h-0.29c-0.48,0-0.97,0.33-1.21,0.86     l-14.25,31.94c-0.31,0.68,0.02,1.12,0.75,1.12h4.71c0.55,0,0.95-0.4,1.15-0.86l1.34-3.24h15.38l1.34,3.26     c0.2,0.48,0.62,0.86,1.12,0.86h4.74C-262.48-639.6-262.19-640.09-262.48-640.73z M-283.6-649.05l5.51-13.33l5.49,13.33H-283.6z"></path>			</g>		</g>	</g>	<g>		<g transform="translate(451.77106, 784.857341)">			<g>				<path class="st7" d="M-344.76-673.15h-4.74c-0.46,0-0.73,0.26-0.73,0.73v19.98l-21.46-20.31c-0.46-0.42-0.77-0.79-1.23-0.79     H-373c-0.46,0-0.81,0.42-0.81,0.97v32.23c0,0.46,0.29,0.73,0.75,0.73h4.76c0.44,0,0.73-0.26,0.73-0.73v-19.87l21.3,20.22     c0.48,0.42,0.82,0.79,1.37,0.79h0.04c0.46,0,0.86-0.37,0.86-1.04v-32.18C-344.01-672.87-344.28-673.15-344.76-673.15z"></path>			</g>		</g>	</g>	<g>		<g transform="translate(582.925948, 784.857341)">			<g>				<path class="st7" d="M-467.2-640.62c0,0.55,0.42,0.97,1.01,0.97h12.2c9.96,0,17.05-7.07,17.05-16.72     c0-9.71-7.09-16.74-16.96-16.74h-12.31c-0.57,0-0.99,0.4-0.99,0.97V-640.62z M-460.96-645.55v-21.72l7.05-0.02     c6.21-0.02,10.75,4.78,10.75,10.93c0,5.99-4.54,10.82-10.84,10.82H-460.96z"></path>			</g>		</g>	</g>	<g>		<g transform="translate(708.727542, 784.857341)">			<g>				<path class="st7" d="M-528.34-640.73l-14.3-31.94c-0.24-0.53-0.68-0.88-1.21-0.88h-0.29c-0.48,0-0.97,0.33-1.21,0.86     l-14.25,31.94c-0.31,0.68,0.02,1.12,0.75,1.12h4.71c0.55,0,0.95-0.4,1.15-0.86l1.34-3.24h15.38l1.34,3.26     c0.2,0.48,0.62,0.86,1.12,0.86h4.74C-528.34-639.6-528.06-640.09-528.34-640.73z M-549.47-649.05l5.51-13.33l5.49,13.33H-549.47     z"></path>			</g>		</g>	</g>	<g>		<g transform="translate(825.199181, 784.857341)">			<g>				<path class="st7" d="M-618.67-649.54c3.5-2.25,5.66-6.04,5.66-10.6c0-7.53-5.68-12.98-13.53-12.98h-7.82c-0.53,0-1.96,0-3.24,0     h-1.1c-0.57,0-0.99,0.4-0.99,0.95v31.57c0,0.6,0.42,0.97,0.99,0.97h4.23c0.6,0,1.01-0.37,1.01-0.97v-6.78h6.92     c0.79,0,1.54-0.04,2.29-0.15l3.46,7.09c0.24,0.46,0.71,0.82,1.12,0.82h4.85c0.71,0,0.97-0.51,0.64-1.15L-618.67-649.54z      M-626.93-652.58h-6.52v-15.09h6.52c4.41,0,7.71,3.15,7.71,7.49C-619.22-655.71-622.44-652.58-626.93-652.58z"></path>			</g>		</g>	</g>	<g>		<g transform="translate(941.211957, 784.857341)">			<g>				<path class="st7" d="M-716.07-672.4c0-0.48-0.26-0.75-0.75-0.75h-4.74c-0.46,0-0.73,0.26-0.73,0.75v32.05     c0,0.46,0.26,0.73,0.73,0.73h4.74c0.48,0,0.75-0.26,0.75-0.73V-672.4z"></path>			</g>		</g>	</g>	<g>		<g transform="translate(990.461922, 784.857341)">			<g>				<path class="st7" d="M-728.29-673.15h-4.74c-0.46,0-0.73,0.26-0.73,0.73v19.98l-21.46-20.31c-0.46-0.42-0.77-0.79-1.23-0.79     h-0.09c-0.46,0-0.81,0.42-0.81,0.97v32.23c0,0.46,0.29,0.73,0.75,0.73h4.76c0.44,0,0.73-0.26,0.73-0.73v-19.87l21.3,20.22     c0.48,0.42,0.82,0.79,1.37,0.79h0.04c0.46,0,0.86-0.37,0.86-1.04v-32.18C-727.54-672.87-727.8-673.15-728.29-673.15z"></path>			</g>		</g>	</g>	<g>		<g transform="translate(1121.616788, 784.857341)">			<g>				<path class="st7" d="M-822.3-640.73l-14.3-31.94c-0.24-0.53-0.68-0.88-1.21-0.88h-0.29c-0.48,0-0.97,0.33-1.21,0.86     l-14.25,31.94c-0.31,0.68,0.02,1.12,0.75,1.12h4.71c0.55,0,0.95-0.4,1.15-0.86l1.34-3.24h15.38l1.34,3.26     c0.2,0.48,0.62,0.86,1.12,0.86h4.74C-822.3-639.6-822.02-640.09-822.3-640.73z M-843.43-649.05l5.51-13.33l5.49,13.33H-843.43z"></path>			</g>		</g>	</g>	<g>		<g transform="translate(192.943128, 850.252175)">			<g>				<path class="st7" d="M-188.78-697.8h-2.02c-0.07,0-0.24,0-0.42,0h-0.42c-0.15,0-0.24,0.1-0.24,0.24v11.13     c0,0.15,0.09,0.25,0.24,0.25h0.79c0.15,0,0.24-0.1,0.24-0.25v-2.39h1.83c2.9,0,5.01-1.83,5.01-4.47     C-183.78-695.91-185.88-697.8-188.78-697.8z M-188.87-689.96h-1.75v-6.7h1.75c2.21,0,3.82,1.41,3.82,3.37     C-185.05-691.31-186.65-689.96-188.87-689.96z"></path>			</g>		</g>	</g>	<g>		<g transform="translate(244.765439, 850.252175)">			<g>				<path class="st7" d="M-224.05-693.45c-0.51-0.38-1.17-0.62-1.72-0.62c-1.04,0-1.98,0.63-2.44,1.55l-0.19-1.25     c-0.02-0.09-0.1-0.15-0.19-0.15h-0.47c-0.11,0-0.18,0.07-0.18,0.19v7.35c0,0.12,0.06,0.18,0.18,0.18h0.79     c0.12,0,0.19-0.06,0.19-0.18v-4.4c0-1.24,0.94-2.27,2.18-2.27c0.4,0,0.88,0.18,1.26,0.47c0.11,0.08,0.22,0.08,0.3-0.04     l0.35-0.56C-223.94-693.27-223.97-693.38-224.05-693.45z"></path>			</g>		</g>	</g>	<g>		<g transform="translate(283.788838, 850.252175)">			<g>				<path class="st7" d="M-257.57-690.05c0,2.24,1.79,4.01,4.06,4.01c2.26,0,4.03-1.77,4.03-4.01c0-2.25-1.77-4.02-4.03-4.02     C-255.78-694.07-257.57-692.3-257.57-690.05z M-256.39-690.05c0-1.64,1.25-2.9,2.88-2.9c1.62,0,2.86,1.26,2.86,2.9     c0,1.63-1.24,2.89-2.86,2.89C-255.14-687.16-256.39-688.43-256.39-690.05z"></path>			</g>		</g>	</g>	<g>		<g transform="translate(331.583332, 850.252175)">			<g>				<path class="st7" d="M-284.98-693.92h-0.88c-0.11,0-0.2,0.08-0.24,0.17l-2.39,5.98l-2.39-5.98c-0.03-0.09-0.12-0.17-0.24-0.17     h-0.88c-0.11,0-0.18,0.09-0.12,0.21l3.05,7.31l-1.18,2.88c-0.08,0.21,0.02,0.27,0.18,0.27h0.71c0.1,0,0.15-0.04,0.21-0.16     l1.24-2.99l-0.01-0.01l3.06-7.31C-284.79-693.82-284.87-693.92-284.98-693.92z"></path>			</g>		</g>	</g>	<g>		<g transform="translate(372.912121, 850.252175)">			<g>				<path class="st7" d="M-317.11-694.07c-2.19,0-3.91,1.77-3.91,4.02c0,2.22,1.76,4.01,4.04,4.01c0.95,0,2.07-0.37,2.77-1.01     c0.08-0.08,0.09-0.21,0.02-0.29l-0.42-0.56c-0.07-0.08-0.19-0.1-0.28-0.02c-0.56,0.5-1.35,0.77-2.05,0.77     c-1.51,0-2.7-1.05-2.86-2.4h5.88c0.35,0,0.6-0.39,0.6-0.76C-313.33-692.48-314.94-694.07-317.11-694.07z M-317.14-692.97     c1.45,0,2.52,0.95,2.67,2.34h-5.33C-319.59-691.97-318.49-692.97-317.14-692.97z"></path>			</g>		</g>	</g>	<g>		<g transform="translate(419.302185, 850.252175)">			<g>				<path class="st7" d="M-350.03-686.05c0.95,0,1.99-0.4,2.71-1.04c0.09-0.08,0.1-0.21,0.04-0.28l-0.41-0.59     c-0.07-0.09-0.19-0.08-0.27-0.02c-0.51,0.47-1.24,0.79-2.05,0.79c-1.58,0-2.83-1.3-2.83-2.87c0-1.6,1.24-2.86,2.82-2.86     c0.81,0,1.51,0.31,2.07,0.8c0.1,0.08,0.22,0.05,0.28-0.03l0.4-0.61c0.06-0.08,0.06-0.19-0.03-0.27     c-0.67-0.6-1.71-1.03-2.73-1.03c-2.21,0-4,1.77-4,3.99C-354.05-687.87-352.27-686.05-350.03-686.05z"></path>			</g>		</g>	</g>	<g>		<g transform="translate(462.671375, 850.252175)">			<g>				<path class="st7" d="M-381.15-687.14c-0.98,0-1.69-0.63-1.69-1.61v-4.18h1.65c0.11,0,0.18-0.07,0.18-0.18v-0.63     c0-0.11-0.07-0.17-0.18-0.17h-1.66v-2.53c0-0.13-0.08-0.18-0.21-0.15l-0.8,0.18c-0.1,0.03-0.15,0.11-0.15,0.21v2.3h-1.06     c-0.11,0-0.18,0.07-0.18,0.18v0.62c0,0.11,0.06,0.18,0.18,0.18h1.06v4.16c0,1.69,1.15,2.73,2.83,2.73     c0.16,0,0.27-0.09,0.27-0.21v-0.68C-380.89-687.05-380.99-687.14-381.15-687.14z"></path>			</g>		</g>	</g>	<g>		<g transform="translate(496.925004, 850.252175)">			<g>				<path class="st7" d="M-409.31-690.05c0,2.24,1.79,4.01,4.06,4.01c2.26,0,4.03-1.77,4.03-4.01c0-2.25-1.77-4.02-4.03-4.02     C-407.53-694.07-409.31-692.3-409.31-690.05z M-408.14-690.05c0-1.64,1.25-2.9,2.88-2.9c1.62,0,2.86,1.26,2.86,2.9     c0,1.63-1.24,2.89-2.86,2.89C-406.89-687.16-408.14-688.43-408.14-690.05z"></path>			</g>		</g>	</g>	<g>		<g transform="translate(544.719509, 850.252175)">			<g>				<path class="st7" d="M-440.59-692.92c0.66,0,1.21,0.24,1.58,0.67c0.09,0.1,0.27,0.11,0.36,0.03l0.44-0.4     c0.12-0.11,0.13-0.23,0.02-0.35c-0.58-0.7-1.45-1.1-2.4-1.1c-1.49,0-2.41,0.98-2.41,2.1c0,1.3,0.86,1.87,2.45,2.34     c1.1,0.35,1.64,0.73,1.64,1.35c0,0.66-0.7,1.08-1.6,1.08c-0.67,0-1.5-0.41-1.89-0.93c-0.11-0.12-0.26-0.13-0.35-0.04l-0.47,0.49     c-0.1,0.1-0.12,0.21-0.02,0.34c0.59,0.78,1.7,1.29,2.73,1.29c1.61,0,2.79-0.82,2.79-2.18c0-1.3-0.85-1.96-2.5-2.47     c-1.23-0.37-1.6-0.69-1.6-1.2C-441.83-692.49-441.31-692.92-440.59-692.92z"></path>			</g>		</g>	</g>	<g>		<g transform="translate(615.055166, 850.252175)">			<g>				<path class="st7" d="M-483.28-686.48l-4.87-11.2c-0.05-0.13-0.17-0.22-0.28-0.22h-0.06c-0.11,0-0.23,0.08-0.28,0.21l-4.87,11.2     c-0.08,0.18,0,0.3,0.2,0.3h0.89c0.11,0,0.21-0.09,0.26-0.21l0.61-1.47h6.45l0.62,1.48c0.05,0.11,0.14,0.21,0.25,0.21h0.9     C-483.28-686.18-483.2-686.31-483.28-686.48z M-491.23-688.99l2.76-6.63l2.76,6.63H-491.23z"></path>			</g>		</g>	</g>	<g>		<g transform="translate(669.156373, 850.252175)">			<g>				<path class="st7" d="M-526.2-693.45c-0.51-0.38-1.17-0.62-1.72-0.62c-1.04,0-1.98,0.63-2.44,1.55l-0.19-1.25     c-0.02-0.09-0.1-0.15-0.19-0.15h-0.47c-0.11,0-0.18,0.07-0.18,0.19v7.35c0,0.12,0.06,0.18,0.18,0.18h0.79     c0.12,0,0.19-0.06,0.19-0.18v-4.4c0-1.24,0.94-2.27,2.18-2.27c0.4,0,0.88,0.18,1.26,0.47c0.11,0.08,0.22,0.08,0.3-0.04     l0.35-0.56C-526.09-693.27-526.12-693.38-526.2-693.45z"></path>			</g>		</g>	</g>	<g>		<g transform="translate(708.179761, 850.252175)">			<g>				<path class="st7" d="M-551.88-693.93h-0.46c-0.1,0-0.17,0.06-0.2,0.15l-0.23,1.53c-0.64-1.13-1.79-1.82-3.15-1.82     c-2.15,0-3.8,1.72-3.8,4.02c0,2.26,1.66,4,3.81,4c1.31,0,2.41-0.64,3.06-1.68l-0.01,4.33c0,0.12,0.07,0.18,0.18,0.18h0.79     c0.12,0,0.2-0.06,0.2-0.18v-10.34C-551.69-693.85-551.76-693.93-551.88-693.93z M-555.71-687.18c-1.57,0-2.84-1.27-2.84-2.86     c0-1.63,1.27-2.88,2.83-2.88c1.6,0,2.89,1.26,2.89,2.88C-552.82-688.45-554.11-687.18-555.71-687.18z"></path>			</g>		</g>	</g>	<g>		<g transform="translate(757.61718, 850.252175)">			<g>				<path class="st7" d="M-587.73-693.92h-0.79c-0.11,0-0.18,0.06-0.18,0.18v4.43c0,1.21-1.08,2.21-2.4,2.21     c-1.3,0-2.18-0.89-2.18-2.15v-4.48c0-0.11-0.08-0.18-0.19-0.18h-0.79c-0.11,0-0.18,0.08-0.18,0.18v4.54     c0,1.9,1.24,3.15,3.02,3.15c1.22,0,2.34-0.7,2.83-1.68l0.21,1.37c0.02,0.08,0.1,0.15,0.19,0.15h0.47c0.11,0,0.18-0.08,0.18-0.19     v-7.35C-587.55-693.85-587.62-693.92-587.73-693.92z"></path>			</g>		</g>	</g>	<g>		<g transform="translate(804.775715, 850.252175)">			<g>				<path class="st7" d="M-627.38-695.41c0.44,0,0.77-0.34,0.77-0.76c0-0.42-0.34-0.77-0.77-0.77c-0.43,0-0.76,0.35-0.76,0.77     C-628.14-695.75-627.8-695.41-627.38-695.41z M-626.98-693.92h-0.79c-0.12,0-0.18,0.06-0.18,0.18v7.36     c0,0.11,0.05,0.18,0.18,0.18h0.79c0.12,0,0.19-0.06,0.19-0.18v-7.36C-626.79-693.85-626.86-693.92-626.98-693.92z"></path>			</g>		</g>	</g>	<g>		<g transform="translate(832.245653, 850.252175)">			<g>				<path class="st7" d="M-644.27-687.14c-0.98,0-1.69-0.63-1.69-1.61v-4.18h1.65c0.11,0,0.18-0.07,0.18-0.18v-0.63     c0-0.11-0.07-0.17-0.18-0.17h-1.66v-2.53c0-0.13-0.08-0.18-0.21-0.15l-0.8,0.18c-0.1,0.03-0.15,0.11-0.15,0.21v2.3h-1.06     c-0.11,0-0.18,0.07-0.18,0.18v0.62c0,0.11,0.06,0.18,0.18,0.18h1.06v4.16c0,1.69,1.15,2.73,2.83,2.73     c0.16,0,0.27-0.09,0.27-0.21v-0.68C-644.01-687.05-644.12-687.14-644.27-687.14z"></path>			</g>		</g>	</g>	<g>		<g transform="translate(866.499282, 850.252175)">			<g>				<path class="st7" d="M-668.53-694.07c-2.19,0-3.91,1.77-3.91,4.02c0,2.22,1.76,4.01,4.04,4.01c0.95,0,2.07-0.37,2.77-1.01     c0.08-0.08,0.09-0.21,0.02-0.29l-0.42-0.56c-0.07-0.08-0.19-0.1-0.28-0.02c-0.56,0.5-1.35,0.77-2.05,0.77     c-1.51,0-2.7-1.05-2.86-2.4h5.88c0.35,0,0.6-0.39,0.6-0.76C-664.75-692.48-666.35-694.07-668.53-694.07z M-668.56-692.97     c1.45,0,2.52,0.95,2.67,2.34h-5.33C-671.01-691.97-669.91-692.97-668.56-692.97z"></path>			</g>		</g>	</g>	<g>		<g transform="translate(912.889323, 850.252175)">			<g>				<path class="st7" d="M-701.45-686.05c0.95,0,1.99-0.4,2.71-1.04c0.09-0.08,0.1-0.21,0.04-0.28l-0.41-0.59     c-0.07-0.09-0.19-0.08-0.27-0.02c-0.51,0.47-1.24,0.79-2.05,0.79c-1.58,0-2.83-1.3-2.83-2.87c0-1.6,1.24-2.86,2.82-2.86     c0.81,0,1.51,0.31,2.07,0.8c0.1,0.08,0.22,0.05,0.28-0.03l0.4-0.61c0.06-0.08,0.06-0.19-0.03-0.27     c-0.67-0.6-1.71-1.03-2.73-1.03c-2.21,0-4,1.77-4,3.99C-705.46-687.87-703.68-686.05-701.45-686.05z"></path>			</g>		</g>	</g>	<g>		<g transform="translate(956.258536, 850.252175)">			<g>				<path class="st7" d="M-732.56-687.14c-0.98,0-1.69-0.63-1.69-1.61v-4.18h1.65c0.11,0,0.18-0.07,0.18-0.18v-0.63     c0-0.11-0.07-0.17-0.18-0.17h-1.66v-2.53c0-0.13-0.08-0.18-0.21-0.15l-0.8,0.18c-0.1,0.03-0.15,0.11-0.15,0.21v2.3h-1.06     c-0.11,0-0.18,0.07-0.18,0.18v0.62c0,0.11,0.06,0.18,0.18,0.18h1.06v4.16c0,1.69,1.15,2.73,2.83,2.73     c0.16,0,0.27-0.09,0.27-0.21v-0.68C-732.3-687.05-732.41-687.14-732.56-687.14z"></path>			</g>		</g>	</g>	<g>		<g transform="translate(990.512119, 850.252175)">			<g>				<path class="st7" d="M-756.27-695.35l1.61-2.28c0.11-0.16,0.01-0.32-0.17-0.33h-0.51c-0.13,0-0.21,0.07-0.29,0.21l-1.42,2.3     c-0.09,0.17-0.03,0.3,0.14,0.3h0.34C-756.44-695.14-756.37-695.21-756.27-695.35z M-760.73-690.05c0,2.24,1.79,4.01,4.06,4.01     c2.26,0,4.03-1.77,4.03-4.01c0-2.25-1.77-4.02-4.03-4.02C-758.94-694.07-760.73-692.3-760.73-690.05z M-759.55-690.05     c0-1.64,1.25-2.9,2.88-2.9c1.62,0,2.86,1.26,2.86,2.9c0,1.63-1.24,2.89-2.86,2.89C-758.3-687.16-759.55-688.43-759.55-690.05z"></path>			</g>		</g>	</g>	<g>		<g transform="translate(1038.306579, 850.252175)">			<g>				<path class="st7" d="M-790.33-694.08c-1.22,0-2.34,0.7-2.83,1.68l-0.21-1.37c-0.02-0.09-0.1-0.15-0.19-0.15h-0.47     c-0.11,0-0.18,0.07-0.18,0.19v7.35c0,0.12,0.06,0.18,0.18,0.18h0.79c0.12,0,0.19-0.06,0.19-0.18v-4.43     c0-1.21,1.08-2.21,2.4-2.21c1.3,0,2.18,0.89,2.18,2.15v4.49c0,0.11,0.08,0.18,0.19,0.18h0.79c0.11,0,0.18-0.08,0.18-0.18v-4.55     C-787.31-692.83-788.56-694.08-790.33-694.08z"></path>			</g>		</g>	</g>	<g>		<g transform="translate(1085.465114, 850.252175)">			<g>				<path class="st7" d="M-827.22-695.41c0.44,0,0.77-0.34,0.77-0.76c0-0.42-0.34-0.77-0.77-0.77c-0.43,0-0.76,0.35-0.76,0.77     C-827.98-695.75-827.64-695.41-827.22-695.41z M-826.82-693.92h-0.79c-0.12,0-0.18,0.06-0.18,0.18v7.36     c0,0.11,0.05,0.18,0.18,0.18h0.79c0.12,0,0.19-0.06,0.19-0.18v-7.36C-826.63-693.85-826.7-693.92-826.82-693.92z"></path>			</g>		</g>	</g>	<g>		<g transform="translate(1112.935051, 850.252175)">			<g>				<path class="st7" d="M-843.87-686.05c0.95,0,1.99-0.4,2.71-1.04c0.09-0.08,0.1-0.21,0.04-0.28l-0.41-0.59     c-0.07-0.09-0.19-0.08-0.27-0.02c-0.51,0.47-1.24,0.79-2.05,0.79c-1.58,0-2.83-1.3-2.83-2.87c0-1.6,1.24-2.86,2.82-2.86     c0.81,0,1.51,0.31,2.07,0.8c0.1,0.08,0.22,0.05,0.28-0.03l0.4-0.61c0.06-0.08,0.06-0.19-0.03-0.27     c-0.67-0.6-1.71-1.03-2.73-1.03c-2.21,0-4,1.77-4,3.99C-847.89-687.87-846.11-686.05-843.87-686.05z"></path>			</g>		</g>	</g>	<g>		<g transform="translate(1156.304219, 850.252175)">			<g>				<path class="st7" d="M-878.76-690.05c0,2.24,1.79,4.01,4.06,4.01c2.26,0,4.03-1.77,4.03-4.01c0-2.25-1.77-4.02-4.03-4.02     C-876.98-694.07-878.76-692.3-878.76-690.05z M-877.59-690.05c0-1.64,1.25-2.9,2.88-2.9c1.62,0,2.86,1.26,2.86,2.9     c0,1.63-1.24,2.89-2.86,2.89C-876.34-687.16-877.59-688.43-877.59-690.05z"></path>			</g>		</g>	</g>	<g>		<g transform="translate(1204.098679, 850.252175)">			<g>				<path class="st7" d="M-910.04-692.92c0.66,0,1.21,0.24,1.58,0.67c0.09,0.1,0.27,0.11,0.36,0.03l0.44-0.4     c0.12-0.11,0.13-0.23,0.02-0.35c-0.58-0.7-1.45-1.1-2.4-1.1c-1.49,0-2.41,0.98-2.41,2.1c0,1.3,0.86,1.87,2.45,2.34     c1.1,0.35,1.64,0.73,1.64,1.35c0,0.66-0.7,1.08-1.6,1.08c-0.67,0-1.5-0.41-1.89-0.93c-0.11-0.12-0.26-0.13-0.35-0.04l-0.47,0.49     c-0.1,0.1-0.12,0.21-0.02,0.34c0.59,0.78,1.7,1.29,2.73,1.29c1.61,0,2.79-0.82,2.79-2.18c0-1.3-0.85-1.96-2.5-2.47     c-1.23-0.37-1.6-0.69-1.6-1.2C-911.28-692.49-910.76-692.92-910.04-692.92z"></path>			</g>		</g>	</g></g></svg>